<?xml version="1.0" encoding="UTF-8" standalone="no"?>
<!DOCTYPE svg PUBLIC "-//W3C//DTD SVG 1.1//EN" "http://www.w3.org/Graphics/SVG/1.1/DTD/svg11.dtd">
<svg xmlns="http://www.w3.org/2000/svg" version="1.1" viewBox="0.00 0.00 502.00 497.00">
<path fill="#e0e0e2" d="
  M 266.82 333.75
  L 208.01 333.75
  A 0.34 0.34 0.0 0 1 207.77 333.65
  L 145.43 271.30
  A 0.34 0.34 0.0 0 1 145.33 271.06
  L 145.34 209.42
  A 0.34 0.34 0.0 0 1 145.44 209.18
  L 207.78 146.85
  A 0.34 0.34 0.0 0 1 208.02 146.75
  L 266.81 146.75
  A 0.34 0.34 0.0 0 1 267.05 147.33
  L 196.34 218.03
  A 0.34 0.34 0.0 0 0 196.24 218.27
  L 196.02 262.28
  A 0.34 0.34 0.0 0 0 196.12 262.52
  L 267.06 333.17
  A 0.34 0.34 0.0 0 1 266.82 333.75
  Z"
/>
<path fill="#e0e0e2" d="
  M 290.29 146.75
  L 349.12 146.75
  A 0.31 0.31 0.0 0 1 349.34 147.28
  L 306.23 190.40
  A 0.31 0.31 0.0 0 1 306.01 190.49
  L 246.99 190.52
  A 0.31 0.31 0.0 0 1 246.77 189.99
  L 290.07 146.84
  A 0.31 0.31 0.0 0 1 290.29 146.75
  Z"
/>
<path fill="#e0e0e2" d="
  M 289.76 333.66
  L 246.43 290.26
  A 0.30 0.30 0.0 0 1 246.64 289.75
  L 305.49 289.75
  A 0.30 0.30 0.0 0 1 305.70 289.84
  L 349.14 333.24
  A 0.30 0.30 0.0 0 1 348.93 333.75
  L 289.97 333.75
  A 0.30 0.30 0.0 0 1 289.76 333.66
  Z"
/>
<path fill="#5f958d" fill-opacity="0.961" d="
  M 209.38 392.92
  C 201.15 385.58 196.19 401.26 204.12 403.42
  Q 207.41 404.32 209.36 400.67
  A 0.51 0.51 0.0 0 1 210.17 400.55
  L 210.43 400.81
  A 0.52 0.51 39.2 0 1 210.50 401.46
  C 204.87 410.12 195.31 400.87 199.79 393.07
  C 202.19 388.88 207.07 388.60 210.17 392.30
  Q 210.43 392.61 210.08 392.82
  L 209.83 392.97
  Q 209.59 393.11 209.38 392.92
  Z"
/>
<path fill="#5f958d" fill-opacity="0.961" d="
  M 219.1917 404.8783
  A 7.56 6.47 91.2 0 1 212.8814 397.1845
  A 7.56 6.47 91.2 0 1 219.5083 389.7617
  A 7.56 6.47 91.2 0 1 225.8186 397.4555
  A 7.56 6.47 91.2 0 1 219.1917 404.8783
  Z
  M 219.4973 403.6795
  A 6.33 5.08 89.3 0 0 224.4996 397.2879
  A 6.33 5.08 89.3 0 0 219.3427 391.0205
  A 6.33 5.08 89.3 0 0 214.3404 397.4121
  A 6.33 5.08 89.3 0 0 219.4973 403.6795
  Z"
/>
<rect fill="#5f958d" fill-opacity="0.961" x="278.26" y="389.79" width="1.24" height="15.12" rx="0.61"/>
<path fill="#e0e0e2" d="
  M 320.34 399.42
  L 304.02 399.53
  Q 303.50 399.54 303.50 399.02
  L 303.50 396.29
  Q 303.50 395.83 303.96 395.82
  L 320.01 395.57
  A 0.59 0.59 0.0 0 0 320.17 394.42
  Q 318.05 393.78 317.44 391.59
  A 1.72 1.71 9.2 0 1 320.05 389.71
  C 322.93 391.63 327.33 394.36 329.33 397.19
  A 0.96 0.96 0.0 0 1 329.13 398.51
  L 319.98 405.36
  A 1.00 0.97 -56.9 0 1 319.19 405.54
  Q 316.81 405.06 317.56 402.59
  Q 317.71 402.10 318.12 401.82
  L 320.57 400.14
  A 0.40 0.40 0.0 0 0 320.34 399.42
  Z"
/>
<path fill="#5f958d" fill-opacity="0.961" d="
  M 232.16 393.80
  Q 230.75 389.35 230.75 394.02
  L 230.75 404.26
  A 0.49 0.48 8.5 0 1 230.12 404.72
  Q 229.89 404.65 229.88 404.43
  Q 229.57 397.48 229.96 391.07
  A 1.22 1.21 -52.2 0 1 232.33 390.77
  L 236.10 402.45
  Q 236.37 403.27 236.68 402.47
  L 241.27 390.64
  A 1.12 1.12 0.0 0 1 243.43 391.05
  L 243.30 404.50
  A 0.34 0.34 0.0 0 1 242.79 404.79
  L 242.38 404.54
  Q 242.20 404.44 242.20 404.23
  Q 242.36 399.74 242.27 395.22
  Q 242.18 391.16 240.77 394.97
  L 237.45 403.93
  A 1.11 1.11 0.0 0 1 235.36 403.88
  L 232.16 393.80
  Z"
/>
<path fill="#5f958d" fill-opacity="0.961" d="
  M 249.69 392.04
  Q 249.22 397.81 249.50 403.76
  Q 249.56 404.90 248.76 404.87
  A 0.44 0.44 0.0 0 1 248.34 404.42
  L 248.55 390.76
  A 1.08 1.08 0.0 0 1 250.66 390.43
  L 254.80 402.75
  Q 255.05 403.47 255.30 402.75
  L 259.67 390.62
  A 1.07 1.07 0.0 0 1 261.75 390.98
  L 261.75 404.49
  A 0.49 0.49 0.0 0 1 261.24 404.98
  Q 260.26 404.95 260.37 403.49
  Q 260.79 398.15 260.54 393.02
  A 0.31 0.31 0.0 0 0 259.93 392.93
  L 255.84 404.43
  A 0.91 0.91 0.0 0 1 254.11 404.40
  L 250.22 391.98
  A 0.27 0.27 0.0 0 0 249.69 392.04
  Z"
/>
<path fill="#5f958d" fill-opacity="0.961" d="
  M 292.88 400.90
  A 0.60 0.60 0.0 0 0 293.99 400.58
  L 293.81 390.49
  A 0.60 0.60 0.0 0 1 294.72 389.96
  L 295.07 390.17
  Q 295.25 390.28 295.25 390.50
  L 295.25 404.28
  A 0.83 0.83 0.0 0 1 293.71 404.71
  L 286.51 392.70
  A 0.38 0.38 0.0 0 0 285.81 392.86
  Q 285.27 398.24 285.86 403.49
  Q 285.98 404.58 285.18 404.76
  A 0.47 0.47 0.0 0 1 284.61 404.31
  L 284.46 391.12
  A 1.15 1.15 0.0 0 1 286.59 390.51
  L 292.88 400.90
  Z"
/>
<path fill="#5f958d" fill-opacity="0.961" d="
  M 268.33 403.69
  L 274.47 403.78
  Q 274.88 403.79 274.88 404.20
  L 274.87 404.47
  Q 274.87 404.75 274.59 404.75
  L 267.25 404.75
  Q 266.75 404.75 266.75 404.25
  L 266.75 390.49
  A 0.26 0.26 0.0 0 1 267.22 390.33
  Q 267.65 390.87 267.67 391.94
  Q 267.76 397.51 267.76 403.10
  Q 267.76 403.68 268.33 403.69
  Z"
/>
<rect fill="#e0e0e2" x="-12.86" y="-1.88" transform="translate(178.63,397.62) rotate(-0.1)" width="25.72" height="3.76" rx="0.27"/>
</svg>
